<svg width="22" height="22" fill="none" xmlns="http://www.w3.org/2000/svg"><path d="M8.215 15.393a.709.709 0 00-.948.126c-1.13 1.39-2.85 2.188-4.723 2.188H.678c-.377 0-.678.28-.678.63s.301.63.678.63h1.871a7.63 7.63 0 003.293-.733 7.163 7.163 0 002.509-1.96.603.603 0 00-.136-.881zm1.912-8.857c.126.089.271.13.417.13.2 0 .401-.083.537-.242 1.13-1.353 2.83-2.128 4.667-2.128h3.94l-2.103 1.956a.598.598 0 000 .89.705.705 0 00.953.001L21.8 4.11a.597.597 0 000-.891L18.538.185a.712.712 0 00-.958 0 .597.597 0 000 .892l2.103 1.955h-3.94c-2.258 0-4.35.952-5.741 2.618a.61.61 0 00.125.886z" fill="#fff"/><path d="M18.544 14.86a.712.712 0 00-.96 0 .598.598 0 000 .892l2.104 1.955h-3.94c-3.257 0-5.907-2.464-5.907-5.492V9.789c0-3.724-3.257-6.752-7.261-6.752H.708c-.377 0-.678.28-.678.63s.301.63.678.63H2.58c3.257 0 5.906 2.463 5.906 5.492v2.426c0 3.724 3.257 6.752 7.262 6.752h3.94l-2.103 1.955a.598.598 0 000 .891.705.705 0 00.953 0L21.8 18.78a.597.597 0 000-.89l-3.256-3.03z" fill="#fff"/></svg>