<svg width="18" height="18" fill="none" xmlns="http://www.w3.org/2000/svg"><path d="M16.45 11.073l-4.81-.85a.566.566 0 00-.6.296l-1.167 2.235a9.078 9.078 0 01-4.626-4.628L7.48 6.959a.566.566 0 00.296-.6l-.85-4.81a.566.566 0 00-.24-.37A3.968 3.968 0 00.5 4.466C.508 11.662 6.338 17.492 13.533 17.5a3.967 3.967 0 003.287-6.187.566.566 0 00-.37-.24zm-2.917 5.294c-6.569-.008-11.892-5.331-11.9-11.9a2.834 2.834 0 014.223-2.47l.732 4.15-2.323 1.214a.567.567 0 00-.268.703 10.214 10.214 0 005.938 5.941.567.567 0 00.704-.268l1.213-2.323 4.151.733a2.833 2.833 0 01-2.47 4.22z" fill="#4BA82E"/></svg>