<svg width="26" height="19" viewBox="0 0 26 19" fill="none" xmlns="http://www.w3.org/2000/svg">
<path d="M20.3043 9.61905H25M1 8.57143V16.9524C1 17.531 1.46718 18 2.04348 18H4.13043C4.70673 18 5.17391 17.531 5.17391 16.9524V15.8571L20.8261 15.9048V16.9524C20.8261 17.531 21.2933 18 21.8696 18H23.9565C24.5328 18 25 17.531 25 16.9524V8.57143L22.913 6.47619C22.2237 5.20635 21.6704 4.23809 21.253 3.57143C20.8356 2.90476 20.3455 2.14286 19.7826 1.28571C17.4963 1.09524 15.2396 1 13.0124 1C10.7852 1 8.52019 1.09524 6.21739 1.28571C5.65455 2.14286 5.16443 2.90476 4.74704 3.57143C4.32965 4.23809 3.77628 5.20635 3.08696 6.47619L1 8.57143ZM7.26087 10.6667L8.30435 9.61905H17.6957L18.7391 10.6667C18.0751 12.7619 17.5534 13.8095 17.1739 13.8095C16.6047 13.8095 9.39526 13.8095 8.82609 13.8095C8.44664 13.8095 7.9249 12.7619 7.26087 10.6667ZM3.08696 6.47619H22.913H3.08696ZM1 9.61905H5.69565H1Z" stroke="white"/>
</svg>
