<svg width="22" height="22" viewBox="0 0 22 22" fill="none" xmlns="http://www.w3.org/2000/svg">
<path d="M8.21534 15.3926C7.91423 15.1827 7.49267 15.2387 7.26684 15.5186C6.13767 16.9092 4.41631 17.7071 2.5444 17.7071H0.677502C0.301112 17.7071 0 17.9871 0 18.337C0 18.687 0.301112 18.967 0.677502 18.967H2.54942C3.7087 18.967 4.81779 18.7197 5.84157 18.2344C6.82019 17.7724 7.68839 17.0958 8.35084 16.2746C8.57166 15.9993 8.51645 15.6026 8.21534 15.3926Z" fill="white"/>
<path d="M10.1274 6.53619C10.2529 6.62485 10.3984 6.66684 10.5439 6.66684C10.7447 6.66684 10.9454 6.58285 11.0809 6.4242C12.2101 5.071 13.9114 4.29641 15.7482 4.29641H19.6877L17.5849 6.25155C17.319 6.49886 17.319 6.89549 17.5849 7.1428C17.7154 7.26412 17.8911 7.32944 18.0617 7.32944C18.2323 7.32944 18.408 7.26878 18.5385 7.1428L21.8005 4.10976C22.0665 3.86245 22.0665 3.46582 21.8005 3.21852L18.5385 0.185482C18.2725 -0.0618272 17.8459 -0.0618272 17.5799 0.185482C17.3139 0.432791 17.3139 0.829418 17.5799 1.07673L19.6827 3.03187H15.7431C13.4848 3.03187 11.3921 3.98377 10.0019 5.64961C9.78112 5.92958 9.83131 6.32154 10.1274 6.53619Z" fill="white"/>
<path d="M18.5435 14.8607C18.2775 14.6134 17.8509 14.6134 17.5849 14.8607C17.319 15.108 17.319 15.5046 17.5849 15.7519L19.6877 17.7071H15.7482C12.4911 17.7071 9.84135 15.2433 9.84135 12.215V9.78853C9.84135 6.0649 6.58432 3.03653 2.57953 3.03653H0.707613C0.331223 3.03653 0.0301112 3.31651 0.0301112 3.66647C0.0301112 4.01644 0.331223 4.29641 0.707613 4.29641H2.57953C5.83656 4.29641 8.48634 6.76017 8.48634 9.78853V12.215C8.48634 15.9386 11.7434 18.967 15.7482 18.967H19.6877L17.5849 20.9221C17.319 21.1694 17.319 21.566 17.5849 21.8134C17.7154 21.9347 17.8911 22 18.0617 22C18.2323 22 18.408 21.9393 18.5385 21.8134L21.8005 18.7803C22.0665 18.533 22.0665 18.1364 21.8005 17.8891L18.5435 14.8607Z" fill="white"/>
</svg>
