<svg width="18" height="18" viewBox="0 0 18 18" fill="none" xmlns="http://www.w3.org/2000/svg">
<path d="M16.45 11.073L11.6402 10.2231C11.3967 10.1802 11.1538 10.2997 11.0395 10.5188L9.87324 12.7537C7.80967 11.8398 6.16058 10.1898 5.24749 8.12572L7.48013 6.95946C7.69927 6.84519 7.8188 6.60225 7.77591 6.35876L6.92591 1.54956C6.89935 1.39821 6.81247 1.26429 6.68519 1.17824C5.46912 0.358125 3.89972 0.27567 2.60452 0.964082C1.30933 1.65277 0.5 2.99999 0.5 4.46673C0.508024 11.6616 6.33849 17.492 13.5333 17.5001C15.0004 17.4998 16.3476 16.6899 17.036 15.3944C17.7241 14.0987 17.6411 12.529 16.8199 11.3132C16.7341 11.1865 16.6007 11.0996 16.45 11.073ZM13.5333 16.3667C6.96437 16.3593 1.6408 11.0357 1.63333 4.46673C1.63306 3.46013 2.16707 2.52906 3.03589 2.02049C3.9047 1.51221 4.97827 1.50308 5.85566 1.9967L6.58835 6.14792L4.26496 7.36066C4.0104 7.49348 3.8953 7.79535 3.99684 8.06402C5.03278 10.8044 7.19541 12.9684 9.9355 14.0054C10.2042 14.107 10.506 13.9919 10.6389 13.7373L11.8521 11.4139L16.0034 12.1469C16.4959 13.024 16.4859 14.0965 15.9779 14.9647C15.4696 15.8327 14.5394 16.3665 13.5333 16.3667Z" fill="#4BA82E"/>
</svg>
