<svg width="39" height="39" viewBox="0 0 39 39" fill="none" xmlns="http://www.w3.org/2000/svg">
<circle cx="19.5" cy="19.5" r="19" stroke="black"/>
<path d="M20.25 10C25 10 29 14.0833 29 18.75M20.25 14.1667C22.6667 14.1667 24.8333 16.4167 24.8333 18.75M24 29L27.3333 25.8333C27.5 25.6667 27.5 25.1667 27.3333 25L24.8333 22.5C24.6667 22.3333 24.1667 22.3333 24 22.5L22.75 23.5833C22.75 23.5833 22.1667 24.5 18.6667 21L18.25 20.5833C14.6667 17 15.6667 16.6667 15.6667 16.6667L16.5 15.8333C16.6667 15.6667 16.6667 15.1667 16.5 15L14 12.5C13.8333 12.3333 13.3333 12.3333 13.1667 12.5L10 15.8333C10 15.8333 14.8333 23.8333 24 29Z" stroke="black"/>
</svg>
