<svg width="31" height="31" viewBox="0 0 31 31" fill="none" xmlns="http://www.w3.org/2000/svg">
<path d="M16.6447 1C23.8947 1 30 7.23246 30 14.3553M16.6447 7.35965C20.3333 7.35965 23.6404 10.7939 23.6404 14.3553M22.3684 30L27.4561 25.1667C27.7105 24.9123 27.7105 24.1491 27.4561 23.8947L23.6404 20.0789C23.386 19.8246 22.6228 19.8246 22.3684 20.0789L20.4605 21.7325C20.4605 21.7325 19.5702 23.1316 14.2281 17.7895L13.5921 17.1535C8.12281 11.6842 9.64912 11.1754 9.64912 11.1754L10.9211 9.90351C11.1754 9.64912 11.1754 8.88597 10.9211 8.63158L7.10526 4.81579C6.85088 4.5614 6.08772 4.5614 5.83333 4.81579L1 9.90351C1 9.90351 8.37719 22.114 22.3684 30Z" stroke="black"/>
</svg>
